<svg xmlns="http://www.w3.org/2000/svg" width="170" height="49" viewBox="0 0 170 49" fill="none"><path d="M147.42 27.0739L155.468 20.1082C155.51 20.0718 155.561 20.0495 155.616 20.0444C155.671 20.0393 155.726 20.0517 155.773 20.0798C155.821 20.1079 155.859 20.1504 155.881 20.2013C155.904 20.2522 155.91 20.3089 155.899 20.3636C155.579 22.0175 155.274 23.5589 154.989 25.1038C154.935 25.4057 154.729 25.5414 154.533 25.7004C153.265 26.7291 152.02 27.7883 150.707 28.7528C150.158 29.16 150.192 29.3975 150.572 29.8905C152.941 32.9518 155.28 36.0345 157.631 39.1137L157.679 39.178C157.707 39.2182 157.723 39.2655 157.727 39.3146C157.73 39.3638 157.72 39.413 157.698 39.4568C157.675 39.5006 157.642 39.5372 157.6 39.5627C157.558 39.5882 157.511 39.6016 157.462 39.6013C155.792 39.6013 154.204 39.6013 152.62 39.6013C152.293 39.6013 152.203 39.3245 152.057 39.1298C150.318 36.765 148.593 34.386 146.851 32.0212C146.761 31.898 146.686 31.7551 146.584 31.6265C146.551 31.5873 146.509 31.5582 146.461 31.5427C146.413 31.5272 146.361 31.5259 146.313 31.5391C146.264 31.5522 146.22 31.5792 146.186 31.6168C146.152 31.6545 146.129 31.7012 146.121 31.7516C145.705 34.1163 145.285 36.4543 144.899 38.7976C144.806 39.3602 144.665 39.6745 144 39.6227C143.121 39.568 142.239 39.568 141.36 39.6227C140.802 39.6495 140.67 39.5066 140.776 38.9083C141.552 34.6218 142.287 30.3352 143.042 26.0487C143.856 21.4317 144.686 16.8129 145.475 12.1906C145.565 11.6726 145.756 11.5601 146.221 11.5726C147.15 11.603 148.083 11.6155 149.007 11.5726C149.574 11.5458 149.634 11.7512 149.544 12.2513C148.823 16.2259 148.119 20.2035 147.432 24.184C147.282 25.0235 147.141 25.8647 146.985 26.8131C146.973 26.8686 146.978 26.9265 147.001 26.9786C147.023 27.0307 147.061 27.0743 147.109 27.1032C147.157 27.1321 147.213 27.1448 147.269 27.1396C147.325 27.1343 147.377 27.1113 147.42 27.0739Z" fill="#005DBD"></path><path d="M75.5861 20.2079C74.8821 24.1039 74.1904 28.0023 73.5111 31.9031C73.1151 34.1607 72.7173 36.4218 72.3653 38.6901C72.3415 38.9263 72.2683 39.1547 72.1506 39.3599C72.1137 39.4186 72.0666 39.4701 72.0115 39.5117C71.9713 39.5303 71.9271 39.5383 71.8831 39.5349L68.5567 39.3259C68.5161 39.3228 68.4768 39.3107 68.4415 39.2903C68.4062 39.2699 68.3758 39.2418 68.3525 39.2081C68.3347 38.9972 68.3295 38.7855 68.3367 38.574C66.1455 39.7082 63.8187 39.9761 61.4163 39.7814C57.5901 39.4795 55.3831 36.7897 55.985 32.9586C56.6485 28.7132 57.4581 24.4891 58.1832 20.2508C58.2677 19.7578 58.4349 19.5507 58.9717 19.581C59.8711 19.6328 60.7775 19.6203 61.6803 19.581C62.1802 19.5649 62.3755 19.6721 62.2735 20.2311C61.6733 23.5121 61.0978 26.7931 60.5135 30.0795C60.3364 30.9473 60.2025 31.8236 60.1122 32.705C59.9855 34.4518 60.9394 35.6824 62.6519 35.9735C64.9152 36.3539 66.9128 35.7949 68.5954 34.2214L68.7626 34.0624C69.0528 33.7687 69.2385 33.3855 69.2906 32.9729C69.7235 30.4724 70.1612 27.9791 70.6035 25.4929C70.9203 23.7068 71.2342 21.9154 71.5451 20.1186C71.6085 19.7418 71.7106 19.5828 72.1154 19.5828C73.1221 19.6078 74.1306 19.6132 75.1373 19.5828C75.6407 19.5721 75.6653 19.7971 75.5861 20.2079Z" fill="#005DBD"></path><path d="M81.5934 39.804C78.6912 39.8773 76.4718 38.6109 74.747 36.3284C74.4496 35.9354 74.5217 35.7354 74.8913 35.4585C75.7221 34.8406 76.544 34.2083 77.3237 33.526C77.7672 33.1456 77.9749 33.1063 78.3427 33.66C79.6803 35.6747 81.5248 36.3927 83.7617 35.8693C84.3215 35.7552 84.8411 35.4913 85.2666 35.1049C86.1096 34.3137 86.0638 33.1402 85.1733 32.3847C84.3936 31.7275 83.4133 31.5328 82.5016 31.1863C81.7307 30.8916 80.9334 30.663 80.1802 30.3397C78.1984 29.4931 77.2445 27.9017 77.4627 25.7442C77.7531 22.8382 79.2914 20.8628 82 19.8769C84.9533 18.8053 89.1755 18.8357 91.6078 22.5096C91.8841 22.9293 91.9598 23.1704 91.5058 23.5134C90.6363 24.1671 89.8021 24.8708 88.9784 25.5798C88.7021 25.8174 88.5525 25.7781 88.387 25.4977C88.2797 25.3191 88.1617 25.1405 88.035 24.9797C86.8541 23.2722 85.0219 22.6578 83.0666 23.3026C82.1971 23.5919 81.6585 24.2314 81.6057 25.0315C81.5459 25.9245 82.1337 26.3068 82.8113 26.6479C83.9237 27.2051 85.1293 27.5213 86.2662 28.0107C86.3384 28.041 86.4158 28.0589 86.488 28.0839C90.6715 29.6574 90.7014 33.2545 89.0488 36.0086C87.3803 38.8056 84.6541 39.6969 81.5934 39.804Z" fill="#005DBD"></path><path d="M48.969 19.3794C51.4734 19.2936 53.721 20.4778 55.539 22.6175C55.8541 22.989 55.891 23.214 55.4704 23.5427C54.6485 24.1731 53.8635 24.8572 53.0838 25.5359C52.8234 25.761 52.6755 25.8342 52.4186 25.5091C50.9278 23.5766 49.0446 22.63 46.5894 23.2873C44.0498 23.966 42.7174 25.8288 42.0046 28.2293C41.6262 29.5045 41.4045 30.8191 41.6262 32.1676C42.0909 35.0074 44.0902 36.4398 46.9062 35.9379C48.5632 35.6256 50.1009 34.8485 51.345 33.6946C51.7462 33.3374 51.9451 33.3964 52.225 33.8107C52.5928 34.3788 52.9986 34.9206 53.4394 35.4325C53.7914 35.8343 53.7667 36.0898 53.376 36.4487C50.824 38.7921 47.8584 39.9762 44.4 39.7047C40.176 39.3725 37.7454 37.0578 37.4762 32.748C37.1822 28.0703 38.7416 24.0785 42.5802 21.2208C44.2486 19.9938 46.3448 19.3972 48.969 19.3794Z" fill="#005DBD"></path><path d="M138.612 25.8336C138.412 25.5907 138.234 25.3746 138.049 25.1549C135.233 21.7703 131.224 23.0116 129.476 25.1763C127.728 27.3411 127.176 29.8451 127.593 32.526C127.998 35.0908 130.124 36.4 132.79 35.9338C134.515 35.632 135.993 34.8014 137.297 33.6512C137.625 33.3619 137.804 33.3404 138.065 33.7209C138.487 34.3442 138.945 34.9408 139.415 35.5319C139.64 35.8177 139.696 36.0285 139.397 36.3196C135.967 39.6667 131.331 40.5401 127.531 39.0826C125 38.1092 123.659 36.0249 123.42 33.3833C122.976 28.5931 124.349 24.4298 128.23 21.4167C131.511 18.8662 136.432 18.6715 139.494 20.8201C140.234 21.3443 140.902 21.9666 141.479 22.6705C141.734 22.9813 141.831 23.1635 141.446 23.4653C140.481 24.2208 139.566 25.0245 138.612 25.8336Z" fill="#005DBD"></path><path d="M103.067 20.0305C102.891 21.0021 102.715 21.9809 102.578 22.9579C102.522 23.3383 102.293 23.324 102.024 23.324C101.274 23.324 100.53 23.3419 99.778 23.324C99.3961 23.3097 99.2254 23.4365 99.1655 23.8295C98.6675 27.1015 97.9423 30.3325 97.534 33.6189C97.4856 33.9808 97.4909 34.3481 97.5499 34.7084C97.7628 35.9783 98.2838 36.3426 99.5492 36.0872C99.6513 36.0658 99.7499 36.0444 99.8519 36.0265C100.44 35.9318 100.836 35.9836 100.732 36.7874C100.639 37.4786 100.695 38.193 100.686 38.8967C100.686 39.17 100.686 39.4164 100.324 39.4772C99.2535 39.6558 98.194 39.8915 97.0975 39.7237C94.887 39.3861 93.5775 37.8376 93.4473 35.455C93.3523 33.7957 93.6603 32.1829 93.9331 30.5612C94.2939 28.4304 94.6617 26.2978 95.0735 24.1742C95.2073 23.5098 95.1299 23.1901 94.3801 23.3187C94.0995 23.3395 93.8177 23.3395 93.5371 23.3187L99.3627 16.4852C99.6724 16.128 99.9804 15.7708 100.288 15.4011L100.427 15.3582C100.449 15.3511 100.472 15.3497 100.495 15.3541C100.517 15.3584 100.538 15.3685 100.556 15.3833C100.573 15.398 100.587 15.4171 100.595 15.4386C100.603 15.4601 100.606 15.4835 100.603 15.5064L100.563 15.8369C100.5 16.2226 100.438 16.6102 100.376 16.996C100.267 17.6836 100.155 18.3713 100.024 19.0553C99.9435 19.4661 100.058 19.5608 100.429 19.5519C101.179 19.534 101.923 19.5697 102.673 19.5394C103.064 19.5197 103.14 19.6537 103.067 20.0305Z" fill="#005DBD"></path><path d="M166.341 20.1567C166.333 20.1749 166.322 20.1913 166.308 20.205L166.243 20.2639L164.984 20.9015L164.961 20.9122L157.548 24.663L157.372 24.7469L156.316 25.2827L156.202 25.3131L156.084 25.3452H156.073H156.052C156.025 25.3348 156.003 25.3156 155.988 25.2908C155.973 25.2659 155.966 25.2367 155.97 25.2077C155.97 25.2077 155.97 25.2077 155.97 25.197L155.984 25.1077C156.077 24.6576 156.172 24.2147 156.262 23.7735C156.262 23.7521 156.262 23.7289 156.276 23.7074C156.519 22.5447 156.753 21.4141 156.989 20.2853C157.054 19.9835 157.253 19.9531 157.517 19.9531C160 19.9531 162.188 19.9531 164.667 19.9531H165.954H166.075H166.146H166.222H166.248H166.264C166.276 19.9585 166.288 19.9657 166.299 19.9746C166.327 19.9939 166.347 20.0234 166.355 20.0572C166.363 20.091 166.358 20.1266 166.341 20.1567Z" fill="#005DBD"></path><path d="M121.928 25.1384C121.511 22.5094 120.275 20.4947 117.616 19.7803C114.642 18.9855 111.778 19.3998 109.15 21.0859C104.983 23.765 103.291 29.4178 103.914 33.6205C104.212 35.6405 105.162 37.3176 106.875 38.4678C108.392 39.4841 110.104 39.7824 111.894 39.7824C114.992 39.7734 117.702 38.7965 120.003 36.6514C120.39 36.2942 120.411 36.0334 120.075 35.6405C119.619 35.1068 119.192 34.5481 118.797 33.9669C118.515 33.5562 118.311 33.5008 117.917 33.858C116.771 34.9267 115.355 35.6514 113.827 35.9513C110.381 36.605 108.123 34.8653 107.938 31.4629C107.904 30.8271 108.096 30.6717 108.7 30.6842C110.742 30.7235 112.778 30.6967 114.818 30.6967C116.91 30.6967 119.001 30.6967 121.094 30.6967C121.456 30.6967 121.724 30.6967 121.798 30.2073C122.03 28.523 122.201 26.837 121.928 25.1384ZM117.637 27.0317C116.249 27.0013 114.855 27.0227 113.462 27.0227H109.281C108.966 27.0227 108.723 27.0531 108.915 26.5637C109.422 25.2599 110.383 24.1902 111.616 23.5566C112.848 22.9231 114.266 22.7697 115.603 23.1255C117.153 23.5274 118.134 24.7687 118.223 26.394C118.257 26.8656 118.132 27.0442 117.637 27.0317Z" fill="#005DBD"></path><path d="M36.2047 26.984C36.1114 23.2333 34.376 20.6239 31.2538 19.7898C28.4624 19.0414 25.7186 19.2843 23.1578 20.6935C19.0675 22.9422 16.5331 28.3379 17.1456 33.3656C17.4783 36.1072 18.6786 38.3255 21.3344 39.2596C25.356 40.6742 29.1066 39.9258 32.2763 37.0199C34.9691 34.5516 35.9723 31.2652 36.2135 27.7324C36.2047 27.4555 36.2099 27.218 36.2047 26.984ZM29.7208 34.4855C28.3709 36.1715 25.6429 36.8467 23.6418 36.0804C22.0736 35.4803 21.2851 33.9568 21.3415 31.0795C21.3996 29.1872 21.9366 27.342 22.9008 25.7213C24.2138 23.578 26.4543 22.5867 28.8848 23.0422C30.5128 23.353 31.6832 24.4817 31.8768 26.3017C32.1707 29.2845 31.6339 32.0993 29.7296 34.4891L29.7208 34.4855Z" fill="#005DBD"></path><path d="M21.6156 16.4844C21.6703 16.4843 21.7236 16.5015 21.7683 16.5336C21.8129 16.5656 21.8467 16.611 21.8648 16.6633C21.883 16.7157 21.8847 16.7725 21.8697 16.8258C21.8547 16.8792 21.8237 16.9265 21.781 16.9613L20.7532 17.8025L15.0842 22.3927C15.0423 22.4264 14.9914 22.4464 14.938 22.45C14.8847 22.4537 14.8315 22.4408 14.7855 22.4131C14.7396 22.3854 14.7029 22.3442 14.6805 22.295C14.6581 22.2457 14.651 22.1907 14.6601 22.1373L15.607 16.7058C15.6177 16.6437 15.6498 16.5874 15.6974 16.5469C15.7451 16.5064 15.8053 16.4843 15.8674 16.4844H21.6156Z" fill="#005DBD"></path><path d="M14.2203 16.8218L13.819 19.1437L12.9267 24.2822L12.2438 28.2116L10.5454 37.9635L10.4785 38.3403C10.4427 38.442 10.3856 38.5346 10.3113 38.6118L10.1652 38.7297L4.79722 43.0805C4.75538 43.1149 4.70418 43.1354 4.6505 43.1394C4.59682 43.1434 4.54322 43.1307 4.49688 43.1029C4.45055 43.0751 4.41368 43.0336 4.39124 42.984C4.36879 42.9343 4.36184 42.8789 4.3713 42.8251L5.12986 38.4457L6.71386 29.3046L6.90922 28.1991L8.05498 21.5906C8.06552 21.5263 8.09943 21.4683 8.15002 21.4281L12.0484 18.2668L13.9351 16.7361L14.0284 16.7093C14.0624 16.6991 14.0988 16.7016 14.1311 16.7163C14.1634 16.7311 14.1894 16.7571 14.2044 16.7897L14.2203 16.8218Z" fill="#005DBD"></path><path d="M30.9614 2.28962L25.6286 6.6101C25.5814 6.6478 25.5232 6.66854 25.4631 6.66904H10.8094C10.7548 6.66872 10.7017 6.65127 10.6573 6.61907C10.613 6.58688 10.5795 6.54153 10.5616 6.48926C10.5436 6.43699 10.5421 6.38036 10.5571 6.32716C10.5722 6.27396 10.6031 6.2268 10.6457 6.19216L16.0014 1.86096L16.0524 1.81274H30.7854C30.841 1.81037 30.8959 1.82589 30.9423 1.85708C30.9887 1.88828 31.0242 1.93355 31.0437 1.98644C31.0632 2.03933 31.0657 2.09713 31.051 2.15157C31.0362 2.20602 31.0048 2.25434 30.9614 2.28962Z" fill="#005DBD"></path><path d="M15.5229 8.27292L14.4669 14.3616C14.456 14.4258 14.4222 14.4837 14.3718 14.5241L11.9624 16.4763L8.78382 19.05C8.74181 19.0839 8.69062 19.104 8.63706 19.1077C8.58351 19.1113 8.53013 19.0983 8.48406 19.0703C8.43798 19.0424 8.40139 19.0009 8.37917 18.9513C8.35694 18.9017 8.35013 18.8464 8.35966 18.7928L8.76798 16.4709L10.1989 8.17468C10.2096 8.11255 10.2417 8.05628 10.2893 8.01576C10.337 7.97525 10.3972 7.9531 10.4593 7.95321H15.2571C15.2967 7.95218 15.3359 7.9602 15.372 7.97665C15.4081 7.99311 15.4401 8.01759 15.4656 8.04829C15.4912 8.07898 15.5096 8.11511 15.5195 8.15399C15.5294 8.19287 15.5305 8.23352 15.5229 8.27292Z" fill="#005DBD"></path><path d="M5.99681 23.6275L5.24353 27.9784C5.23275 28.0405 5.20072 28.0968 5.15307 28.1373C5.10542 28.1778 5.04521 28.2 4.98305 28.1998H0.37361C0.318916 28.1999 0.265558 28.1827 0.220908 28.1506C0.176257 28.1186 0.142519 28.0733 0.124357 28.0209C0.106194 27.9685 0.104503 27.9118 0.119517 27.8584C0.134531 27.805 0.165508 27.7577 0.208169 27.723L5.57089 23.3721C5.61274 23.3378 5.66393 23.3172 5.71761 23.3132C5.77129 23.3092 5.82489 23.322 5.87123 23.3498C5.91757 23.3775 5.95443 23.419 5.97687 23.4687C5.99932 23.5183 6.00628 23.5738 5.99681 23.6275Z" fill="#005DBD"></path></svg>