<?xml version="1.0" encoding="UTF-8"?>
<!-- Created with Inkscape (http://www.inkscape.org/) -->
<svg width="536.63" height="116.83" version="1.1" viewBox="0 0 536.63 116.83" xml:space="preserve" xmlns="http://www.w3.org/2000/svg" xmlns:cc="http://creativecommons.org/ns#" xmlns:dc="http://purl.org/dc/elements/1.1/" xmlns:rdf="http://www.w3.org/1999/02/22-rdf-syntax-ns#"><metadata><rdf:RDF><cc:Work rdf:about=""><dc:format>image/svg+xml</dc:format><dc:type rdf:resource="http://purl.org/dc/dcmitype/StillImage"/><dc:title/></cc:Work></rdf:RDF></metadata><g transform="matrix(1.3333 0 0 -1.3333 -152.2 771.65)"><g transform="translate(-9972 -1570.1)"><path d="m10360 2112.2c-2.277 4.1565-5.588 7.271-9.934 9.3434s-8.882 2.6919-13.609 1.8585c-4.727-0.8335-8.777-2.967-12.152-6.4007s-5.421-7.4927-6.138-12.177zm-207.96-19.332c1.516-0.01 2.881 0.3925 4.096 1.2016 1.215 0.8092 2.124 2.0749 2.726 3.7973v3.6531h-5.38c-2.294 0-3.976-0.3806-5.045-1.1296s-1.597-1.8465-1.585-3.2926c0.01-1.2277 0.468-2.2331 1.369-3.0161 0.901-0.7831 2.174-1.1877 3.819-1.2137zm153.04 18.297-53.461-9.4259c2.283-4.191 5.599-7.3337 9.949-9.4283s8.888-2.7252 13.615-1.8918c7.011 1.2363 12.251 4.9219 15.718 11.057l12.953 2.2839c0.137 2.5285 0.545 4.9969 1.226 7.4051zm2.171 7.45c0.08-0.4426 0.148-0.8869 0.208-1.3327 0.863 1.7262 1.878 3.4187 3.047 5.0773 5.814 8.2548 13.645 13.25 23.493 14.987 9.926 1.7502 19.014-0.2623 27.262-6.0377 8.248-5.7753 13.248-13.626 14.998-23.553 0.403-2.2847 0.57-4.611 0.5-6.979l-56.132-9.8969c2.283-4.191 5.599-7.3338 9.949-9.4283 4.35-2.0946 8.888-2.7252 13.615-1.8918 7.011 1.2363 12.251 4.9219 15.718 11.057l15.953 2.8128 21.547 24.027h-20.923v15.828h69.859l10.846-28.122 11.038 28.122h20.54l-21.596-53.558c-2.879-7.0723-6.431-11.96-10.654-14.663s-9.118-3.9907-14.685-3.8626c-2.962 0.016-5.893 0.4397-8.795 1.2711-2.901 0.8314-5.281 1.9746-7.138 3.4295l7.198 14.883c1.082-0.8328 2.302-1.5034 3.66-2.0119 1.357-0.5084 2.697-0.7697 4.019-0.7839 1.286 0 2.361 0.1891 3.227 0.5551 0.866 0.3661 1.582 0.889 2.148 1.5689l-21.391 51.521v-10.82l-21.69-24.201h22.746v-15.828h-50.1v12.027c-1.649-6.8398-5.055-12.726-10.219-17.658-5.318-5.0805-11.601-8.2597-18.849-9.5376-9.847-1.7363-18.915 0.2797-27.203 6.0481-8.287 5.7684-13.3 13.576-15.036 23.424-0.08 0.4802-0.161 0.9584-0.228 1.4346-1.86-3.8852-4.424-7.3886-7.692-10.51-5.318-5.0805-11.601-8.2597-18.849-9.5376-9.847-1.7363-18.915 0.2797-27.203 6.0481-8.287 5.7684-13.3 13.576-15.036 23.424-1.325 7.5114-0.484 14.544 2.523 21.098l-14.578-19.292 19.772-26.97h-24.859l-7.199 11.229-8.063-11.229h-42.602v6.9048c-1.251-2.6356-3.121-4.6058-5.609-5.9106s-5.582-1.9562-9.283-1.9542c-6.436 0.1157-11.289 1.7066-14.559 4.7725-1.532 1.4362-2.706 3.0436-3.522 4.8223l2.345-6.8129c-1.708-0.9553-3.716-1.6587-6.024-2.1104s-4.748-0.6755-7.32-0.6715c-7.294-0.018-12.928 1.7209-16.899 5.217-3.972 3.4962-5.983 8.8582-6.033 16.086v13.449h-7.2v15.828h7.2v14.688h21.684v-14.688h10.752v-15.828h-10.752v-13.257c0.03-1.6411 0.454-2.8979 1.284-3.7705 0.83-0.8725 1.906-1.3128 3.228-1.3208 0.87 0 1.722 0.1201 2.556 0.3602 0.834 0.2402 1.614 0.6004 2.34 1.0807l1.899-5.5175c-0.301 1.2569-0.453 2.5853-0.455 3.9851-0.02 5.1127 1.939 9.0242 5.877 11.734s9.976 4.0773 18.113 4.101h8.744c-0.322 2.0239-1.287 3.5549-2.894 4.5929-1.608 1.038-3.942 1.5591-7.002 1.5631-2.403-0.01-4.798-0.3748-7.187-1.0942s-4.472-1.7333-6.249-3.0419l-6.908 14.304c3.16 1.9265 6.843 3.3974 11.047 4.4127 4.204 1.0152 8.392 1.5269 12.563 1.5349 9.081 0.04 16.072-1.9829 20.975-6.0694 4.902-4.0866 7.381-10.478 7.437-19.175v-26.826l18.807 24.621-19.293 26.49h24.476l7.487-11.134 7.87 11.134 21.652-1e-4c5.809 8.2159 13.625 13.19 23.447 14.922 9.926 1.7501 19.014-0.2624 27.262-6.0378 8.248-5.7753 13.248-13.626 14.998-23.553zm-16.258 4.4442c-2.277 4.1565-5.588 7.271-9.934 9.3434s-8.882 2.6919-13.609 1.8585-8.777-2.967-12.152-6.4006c-3.375-3.4337-5.421-7.4928-6.138-12.177z" fill="#231f20"/></g></g></svg>
